<svg width="18" height="18" viewBox="0 0 18 18" fill="none" xmlns="http://www.w3.org/2000/svg">
<path d="M13.3125 0.75C11.3159 0.75 9.66688 2.60449 9 3.47974C8.33312 2.60449 6.68408 0.75 4.68749 0.75C2.1028 0.75 0 3.12635 0 6.04689C0 7.64027 0.632461 9.12524 1.7395 10.1415C1.7556 10.1693 1.77539 10.195 1.79845 10.218L8.73524 17.1405C8.80847 17.2134 8.90406 17.25 9 17.25C9.09594 17.25 9.19188 17.2134 9.26515 17.1402L16.4326 9.97525L16.5066 9.90346C16.5652 9.84816 16.6231 9.79212 16.6879 9.72036C16.715 9.69364 16.7373 9.66359 16.7545 9.631C17.5584 8.64662 18 7.37695 18 6.04689C18 3.12635 15.8972 0.75 13.3125 0.75ZM16.1305 9.20912C16.1202 9.22121 16.1107 9.23401 16.1023 9.2472C16.0671 9.28748 16.0287 9.32299 15.9906 9.35927L8.99965 16.3451L2.41407 9.77271C2.39284 9.73095 2.36317 9.69287 2.32692 9.66102C1.32458 8.78577 0.749988 7.4685 0.749988 6.04689C0.749988 3.53979 2.51624 1.50002 4.68749 1.50002C6.83423 1.50002 8.66637 4.30008 8.68468 4.32827C8.82313 4.54213 9.17687 4.54213 9.31532 4.32827C9.33363 4.30008 11.1658 1.50002 13.3125 1.50002C15.4838 1.50002 17.25 3.53982 17.25 6.04689C17.25 7.22828 16.8523 8.35145 16.1305 9.20912Z" fill="#333333"/>
</svg>
