<svg width="63" height="49" viewBox="0 0 63 49" fill="none" xmlns="http://www.w3.org/2000/svg">
<path d="M14.4961 10.1433C14.6016 10.0203 14.7158 9.8269 14.8389 9.56323C14.9619 9.28198 15.0762 8.96558 15.1816 8.61401C15.2871 8.24487 15.3662 7.84937 15.4189 7.42749C15.4893 6.98804 15.5244 6.54858 15.5244 6.10913C15.5244 5.23022 15.3486 4.58862 14.9971 4.18433C14.6631 3.76245 14.2852 3.55151 13.8633 3.55151C13.6348 3.55151 13.3975 3.62183 13.1514 3.76245C12.9053 3.90308 12.6855 4.1228 12.4922 4.42163C12.2988 4.70288 12.1318 5.06323 11.9912 5.50269C11.8682 5.94214 11.8066 6.46948 11.8066 7.08472C11.8066 7.40112 11.877 7.96362 12.0176 8.77222C12.1758 9.58081 12.3691 10.53 12.5977 11.6199C12.8262 12.7097 13.0635 13.8962 13.3096 15.1794C13.5732 16.4451 13.8193 17.7107 14.0479 18.9763C14.2764 20.2419 14.4609 21.4548 14.6016 22.615C14.7598 23.7576 14.8389 24.7507 14.8389 25.5945C14.8389 26.4382 14.6895 27.3259 14.3906 28.2576C14.1094 29.1716 13.7402 30.0769 13.2832 30.9734C12.8262 31.8523 12.3252 32.6873 11.7803 33.4783C11.2354 34.2693 10.708 34.9724 10.1982 35.5876C9.68848 36.1853 9.23145 36.6599 8.82715 37.0115C8.42285 37.363 8.13281 37.5388 7.95703 37.5388C7.6582 37.5388 7.37695 37.5212 7.11328 37.4861C6.86719 37.4509 6.59473 37.3718 6.2959 37.2488C5.7334 36.9324 5.15332 36.5281 4.55566 36.0359C3.97559 35.5437 3.42188 35.0076 2.89453 34.4275C2.34961 33.8474 1.85742 33.2585 1.41797 32.6609C0.960938 32.0457 0.591797 31.4568 0.310547 30.8943C0.714844 30.3318 1.13672 29.7869 1.57617 29.2595C1.94531 28.8025 2.3584 28.3279 2.81543 27.8357C3.25488 27.3435 3.69434 26.9041 4.13379 26.5173H4.18652C4.4502 27.2029 4.78418 27.9587 5.18848 28.7849C5.59277 29.6111 6.02344 30.3845 6.48047 31.1052C6.95508 31.8259 7.43848 32.4324 7.93066 32.9246C8.42285 33.3992 8.88867 33.6365 9.32812 33.6365C9.41602 33.6365 9.54785 33.6101 9.72363 33.5574C9.91699 33.5046 10.1016 33.3904 10.2773 33.2146C10.4531 33.0212 10.6025 32.74 10.7256 32.3708C10.8662 31.9841 10.9365 31.4568 10.9365 30.7888C10.9365 30.3318 10.8486 29.5671 10.6729 28.4949C10.5146 27.4226 10.3037 26.2009 10.04 24.8298C9.77637 23.4587 9.49512 22.0173 9.19629 20.5056C8.91504 18.9939 8.64258 17.5701 8.37891 16.2341C8.11523 14.8982 7.89551 13.7292 7.71973 12.7273C7.56152 11.7078 7.48242 11.0134 7.48242 10.6443C7.48242 9.87085 7.64062 9.12378 7.95703 8.40308C8.29102 7.66479 8.67773 6.98804 9.11719 6.3728C9.57422 5.73999 10.04 5.18628 10.5146 4.71167C10.9893 4.23706 11.3672 3.86792 11.6484 3.60425C12.0703 3.25269 12.5361 2.87476 13.0459 2.47046C13.5732 2.06616 14.0918 1.68823 14.6016 1.33667C15.1289 0.985107 15.6211 0.695068 16.0781 0.466553C16.5352 0.220459 16.9131 0.0974121 17.2119 0.0974121C17.5107 0.0974121 17.7832 0.167725 18.0293 0.30835C18.2754 0.431396 18.4863 0.659912 18.6621 0.993896C18.8555 1.3103 18.9961 1.75854 19.084 2.33862C19.1895 2.90112 19.2422 3.63062 19.2422 4.5271C19.2422 4.9314 19.1719 5.3269 19.0312 5.71362C18.9082 6.08276 18.7412 6.4519 18.5303 6.82104C18.3193 7.17261 18.082 7.51538 17.8184 7.84937C17.5547 8.16577 17.2822 8.4646 17.001 8.74585C16.333 9.41382 15.5859 10.0291 14.7598 10.5916L14.4961 10.1433ZM25.3594 4.15796C25.3594 3.77124 25.2539 3.50757 25.043 3.36694C24.8496 3.20874 24.6035 3.13843 24.3047 3.15601C24.0059 3.17358 23.6807 3.2439 23.3291 3.36694C22.9775 3.47241 22.6523 3.59546 22.3535 3.73608L22.0107 3.02417C23.8037 2.14526 25.2627 1.53003 26.3877 1.17847C27.5303 0.826904 28.3213 0.651123 28.7607 0.651123C28.8838 0.651123 29.0244 0.703857 29.1826 0.809326C29.3584 0.897217 29.5166 1.02905 29.6572 1.20483C29.7979 1.38062 29.9209 1.58276 30.0264 1.81128C30.1318 2.02222 30.1846 2.24194 30.1846 2.47046C30.1846 2.61108 29.9824 3.19995 29.5781 4.23706C29.1738 5.25659 28.6904 6.60132 28.1279 8.27124C27.6709 9.69507 27.2314 11.0398 26.8096 12.3054C26.3877 13.5535 25.9834 14.7576 25.5967 15.9177C25.21 17.0603 24.832 18.1677 24.4629 19.24C24.0938 20.2947 23.7246 21.3494 23.3555 22.4041C23.9004 21.7009 24.4717 20.989 25.0693 20.2683C25.667 19.53 26.2383 18.8708 26.7832 18.2908C27.3281 17.7107 27.8291 17.2361 28.2861 16.8669C28.7607 16.4978 29.1562 16.3132 29.4727 16.3132C29.5957 16.3132 29.8066 16.3748 30.1055 16.4978C30.4219 16.6033 30.7471 16.7791 31.0811 17.0251C31.415 17.2537 31.7051 17.5525 31.9512 17.9216C32.2148 18.2732 32.3555 18.7039 32.373 19.2136C32.373 19.3894 32.25 19.7937 32.0039 20.4265C31.7578 21.0593 31.4502 21.8152 31.0811 22.6941C30.7295 23.573 30.3428 24.531 29.9209 25.5681C29.499 26.6052 29.1035 27.6248 28.7344 28.6267C28.3828 29.6287 28.084 30.5603 27.8379 31.4216C27.5918 32.283 27.4688 32.9861 27.4688 33.531C27.4688 33.7419 27.4863 33.9001 27.5215 34.0056C27.5742 34.0935 27.6797 34.1375 27.8379 34.1375C28.0312 34.1199 28.3213 34.0232 28.708 33.8474C29.0947 33.6541 29.543 33.3728 30.0527 33.0037C30.5625 32.6345 31.1074 32.1863 31.6875 31.6589C32.2852 31.114 32.874 30.4812 33.4541 29.7605L34.0605 30.2878C33.3223 31.2195 32.4873 32.1072 31.5557 32.9509C30.6416 33.7771 29.7363 34.5066 28.8398 35.1394C27.9434 35.7722 27.0996 36.2732 26.3086 36.6423C25.5176 37.0115 24.876 37.196 24.3838 37.196C24.2959 37.196 24.1816 37.1609 24.041 37.0906C23.9004 37.0203 23.7598 36.906 23.6191 36.7478C23.4785 36.5896 23.3555 36.3699 23.25 36.0886C23.1445 35.8074 23.0918 35.4558 23.0918 35.0339C23.0918 34.823 23.1182 34.5593 23.1709 34.2429C23.2236 33.9089 23.2852 33.575 23.3555 33.241C23.4258 32.8894 23.4961 32.573 23.5664 32.2917C23.6543 31.9929 23.7158 31.7732 23.751 31.6326C23.9092 31.0173 24.1289 30.3318 24.4102 29.5759C24.709 28.8025 25.0254 28.0027 25.3594 27.1765C25.6934 26.3503 26.0361 25.533 26.3877 24.7244C26.7393 23.8982 27.0557 23.1335 27.3369 22.4304C27.6182 21.7097 27.8467 21.0857 28.0225 20.5583C28.1982 20.0134 28.2861 19.6003 28.2861 19.3191C28.2861 19.073 28.2158 18.95 28.0752 18.95C27.9521 18.95 27.7676 19.0554 27.5215 19.2664C27.2754 19.4597 26.9854 19.7234 26.6514 20.0574C26.335 20.3914 25.9922 20.7693 25.623 21.1912C25.2539 21.5955 24.8848 22.0173 24.5156 22.4568C24.1465 22.8787 23.7949 23.2917 23.4609 23.696C23.1445 24.0828 22.8633 24.4255 22.6172 24.7244C22.002 26.5349 21.3691 28.4158 20.7188 30.3669C20.0859 32.3005 19.418 34.4539 18.7148 36.8269C18.5215 36.8621 18.3105 36.8884 18.082 36.906C17.6777 36.9587 17.1504 36.9851 16.5 36.9851C16.2012 36.9851 15.8848 36.9675 15.5508 36.9324C15.2168 36.9148 14.8916 36.8796 14.5752 36.8269L14.3906 36.5632C14.4785 36.3875 14.707 35.8162 15.0762 34.8494C15.4453 33.865 15.9023 32.6257 16.4473 31.1316C16.9746 29.6375 17.5635 27.9587 18.2139 26.0955C18.8467 24.2322 19.4971 22.3337 20.165 20.4001C20.833 18.4666 21.4746 16.5681 22.0898 14.7048C22.7227 12.8416 23.2764 11.1628 23.751 9.6687C24.2432 8.15698 24.6299 6.90894 24.9111 5.92456C25.21 4.94019 25.3594 4.35132 25.3594 4.15796ZM34.7988 23.116C35.2207 22.0964 35.7393 21.1824 36.3545 20.3738C36.9697 19.5476 37.6465 18.8533 38.3848 18.2908C39.123 17.7107 39.9053 17.2712 40.7314 16.9724C41.5576 16.6736 42.3926 16.5242 43.2363 16.5242C43.6055 16.5242 44.0098 16.6296 44.4492 16.8406C44.9062 17.0339 45.3281 17.3064 45.7148 17.658C46.1016 18.0095 46.418 18.4402 46.6641 18.95C46.9277 19.4421 47.0596 19.9871 47.0596 20.5847C47.0596 21.0945 46.998 21.6833 46.875 22.3513C46.752 23.0017 46.5938 23.6785 46.4004 24.3816C46.207 25.0671 45.9961 25.7527 45.7676 26.4382C45.5391 27.1238 45.3193 27.7566 45.1084 28.3367C44.8975 28.8992 44.7041 29.3826 44.5283 29.7869C44.3701 30.1912 44.2559 30.4636 44.1855 30.6042C43.7637 31.6414 43.2451 32.5642 42.6299 33.3728C42.0146 34.1814 41.3379 34.8757 40.5996 35.4558C39.8613 36.0183 39.0791 36.449 38.2529 36.7478C37.4443 37.0466 36.6182 37.196 35.7744 37.196C35.4053 37.196 35.001 37.0994 34.5615 36.906C34.1045 36.7126 33.6826 36.4402 33.2959 36.0886C32.9092 35.7195 32.5928 35.2888 32.3467 34.7966C32.083 34.3044 31.9512 33.7595 31.9512 33.1619C31.9512 32.6345 32.0127 32.0457 32.1357 31.3953C32.2588 30.7273 32.417 30.0505 32.6104 29.365C32.8037 28.6619 33.0146 27.9675 33.2432 27.282C33.4717 26.5964 33.6914 25.9724 33.9023 25.4099C34.1133 24.8474 34.2979 24.364 34.4561 23.9597C34.6143 23.5378 34.7285 23.2566 34.7988 23.116ZM42.1025 17.9744C41.6982 17.9744 41.2588 18.3347 40.7842 19.0554C40.3271 19.7585 39.8613 20.6638 39.3867 21.7712C38.9297 22.8787 38.4814 24.0916 38.042 25.4099C37.6201 26.7107 37.2422 27.9675 36.9082 29.1804C36.5918 30.3933 36.3281 31.4656 36.1172 32.3972C35.9238 33.3113 35.8271 33.9265 35.8271 34.2429C35.8271 34.7527 35.9238 35.1218 36.1172 35.3503C36.3105 35.5789 36.5742 35.6931 36.9082 35.6931C37.207 35.6931 37.5234 35.491 37.8574 35.0867C38.1914 34.6648 38.5342 34.1111 38.8857 33.4255C39.2373 32.74 39.5801 31.949 39.9141 31.0525C40.2656 30.156 40.5996 29.2332 40.916 28.2839C41.2324 27.3171 41.5225 26.3591 41.7861 25.4099C42.0674 24.4607 42.3047 23.5818 42.498 22.7732C42.709 21.9646 42.8672 21.2703 42.9727 20.6902C43.0957 20.0925 43.1572 19.6794 43.1572 19.4509C43.1572 18.9412 43.0605 18.572 42.8672 18.3435C42.6738 18.0974 42.4189 17.9744 42.1025 17.9744ZM45.7939 48.2175C45.4775 48.3582 45.126 48.4548 44.7393 48.5076C44.335 48.5779 43.9307 48.6218 43.5264 48.6394C43.1221 48.6746 42.7441 48.6833 42.3926 48.6658C42.0234 48.6658 41.7158 48.6658 41.4697 48.6658L41.3115 48.3757C41.5928 47.8132 41.9707 46.9255 42.4453 45.7126C42.9023 44.5173 43.4297 43.1023 44.0273 41.4675C44.6074 39.8503 45.2314 38.0837 45.8994 36.1677C46.5498 34.2517 47.2178 32.2917 47.9033 30.2878C48.2373 29.2683 48.5889 28.196 48.958 27.071C49.3271 25.946 49.6611 24.8826 49.96 23.8806C50.2588 22.8787 50.5049 21.9998 50.6982 21.2439C50.9092 20.4705 51.0146 19.9431 51.0146 19.6619C51.0146 19.4685 50.9883 19.3015 50.9355 19.1609C50.9004 19.0027 50.8564 18.8708 50.8037 18.7654C50.7334 18.6423 50.6631 18.5281 50.5928 18.4226V18.0271C50.9795 17.781 51.4453 17.5613 51.9902 17.3679C52.5352 17.1746 53.0625 17.0164 53.5723 16.8933C54.1523 16.7527 54.7588 16.6296 55.3916 16.5242L55.4971 16.6824C55.4971 16.8582 55.4707 17.113 55.418 17.447C55.3652 17.7634 55.2949 18.1238 55.207 18.5281C55.1367 18.9324 55.0488 19.3542 54.9434 19.7937C54.8555 20.2156 54.7588 20.6199 54.6533 21.0066C55.1631 20.3035 55.6465 19.6443 56.1035 19.0291C56.5605 18.3962 57 17.8513 57.4219 17.3943C57.8438 16.9197 58.2393 16.5505 58.6084 16.2869C58.9951 16.0056 59.3643 15.865 59.7158 15.865C59.9443 15.865 60.2168 15.9617 60.5332 16.155C60.8496 16.3308 61.1484 16.5681 61.4297 16.8669C61.7285 17.1482 61.9746 17.4734 62.168 17.8425C62.3789 18.1941 62.4844 18.5457 62.4844 18.8972C62.4844 19.5125 62.4141 20.1892 62.2734 20.9275C62.1504 21.6482 61.9834 22.3777 61.7725 23.116C61.5615 23.8367 61.333 24.5486 61.0869 25.2517C60.8408 25.9548 60.6035 26.5964 60.375 27.1765C60.1465 27.739 59.9355 28.2224 59.7422 28.6267C59.5664 29.031 59.4521 29.2947 59.3994 29.4177C58.8896 30.5779 58.2832 31.6326 57.5801 32.5818C56.8945 33.531 56.1826 34.3484 55.4443 35.0339C54.7061 35.7195 53.9766 36.2556 53.2559 36.6423C52.5527 37.0115 51.9375 37.196 51.4102 37.196C50.8652 37.196 50.4609 37.1345 50.1973 37.0115C49.9336 36.8884 49.7051 36.7566 49.5117 36.616C49.248 37.407 48.9844 38.2068 48.7207 39.0154C48.4395 39.824 48.1494 40.6765 47.8506 41.573C47.5518 42.4871 47.2354 43.4802 46.9014 44.5525C46.5674 45.6423 46.1982 46.864 45.7939 48.2175ZM58.0547 18.6335C57.8789 18.6335 57.6504 18.783 57.3691 19.0818C57.1055 19.363 56.7979 19.741 56.4463 20.2156C56.0947 20.6726 55.708 21.1912 55.2861 21.7712C54.8818 22.3513 54.4512 22.9226 53.9941 23.4851C53.7656 24.2234 53.4756 25.1199 53.124 26.1746C52.79 27.2117 52.4385 28.2839 52.0693 29.3914C51.7178 30.4812 51.375 31.5447 51.041 32.5818C50.707 33.6013 50.4346 34.4626 50.2236 35.1658C50.3818 35.3591 50.584 35.5261 50.8301 35.6667C51.0762 35.7898 51.3398 35.8513 51.6211 35.8513C52.0605 35.8513 52.5264 35.5173 53.0186 34.8494C53.5283 34.1638 54.0293 33.2937 54.5215 32.239C55.0312 31.1843 55.5146 30.0242 55.9717 28.7585C56.4463 27.4753 56.8594 26.2361 57.2109 25.0408C57.5625 23.8455 57.8438 22.7732 58.0547 21.824C58.2656 20.8572 58.3711 20.1541 58.3711 19.7146C58.3711 19.6443 58.3623 19.5564 58.3447 19.4509C58.3447 19.3279 58.3271 19.2048 58.292 19.0818C58.2744 18.9587 58.248 18.8533 58.2129 18.7654C58.1777 18.6775 58.125 18.6335 58.0547 18.6335Z" fill="white"/>
</svg>
