<svg width="63" height="49" viewBox="0 0 63 49" fill="none" xmlns="http://www.w3.org/2000/svg">
<path d="M14.4961 10.3164C14.6016 10.1934 14.7158 10 14.8389 9.73633C14.9619 9.45508 15.0762 9.13867 15.1816 8.78711C15.2871 8.41797 15.3662 8.02246 15.4189 7.60059C15.4893 7.16113 15.5244 6.72168 15.5244 6.28223C15.5244 5.40332 15.3486 4.76172 14.9971 4.35742C14.6631 3.93555 14.2852 3.72461 13.8633 3.72461C13.6348 3.72461 13.3975 3.79492 13.1514 3.93555C12.9053 4.07617 12.6855 4.2959 12.4922 4.59473C12.2988 4.87598 12.1318 5.23633 11.9912 5.67578C11.8682 6.11523 11.8066 6.64258 11.8066 7.25781C11.8066 7.57422 11.877 8.13672 12.0176 8.94531C12.1758 9.75391 12.3691 10.7031 12.5977 11.793C12.8262 12.8828 13.0635 14.0693 13.3096 15.3525C13.5732 16.6182 13.8193 17.8838 14.0479 19.1494C14.2764 20.415 14.4609 21.6279 14.6016 22.7881C14.7598 23.9307 14.8389 24.9238 14.8389 25.7676C14.8389 26.6113 14.6895 27.499 14.3906 28.4307C14.1094 29.3447 13.7402 30.25 13.2832 31.1465C12.8262 32.0254 12.3252 32.8604 11.7803 33.6514C11.2354 34.4424 10.708 35.1455 10.1982 35.7607C9.68848 36.3584 9.23145 36.833 8.82715 37.1846C8.42285 37.5361 8.13281 37.7119 7.95703 37.7119C7.6582 37.7119 7.37695 37.6943 7.11328 37.6592C6.86719 37.624 6.59473 37.5449 6.2959 37.4219C5.7334 37.1055 5.15332 36.7012 4.55566 36.209C3.97559 35.7168 3.42188 35.1807 2.89453 34.6006C2.34961 34.0205 1.85742 33.4316 1.41797 32.834C0.960938 32.2188 0.591797 31.6299 0.310547 31.0674C0.714844 30.5049 1.13672 29.96 1.57617 29.4326C1.94531 28.9756 2.3584 28.501 2.81543 28.0088C3.25488 27.5166 3.69434 27.0771 4.13379 26.6904H4.18652C4.4502 27.376 4.78418 28.1318 5.18848 28.958C5.59277 29.7842 6.02344 30.5576 6.48047 31.2783C6.95508 31.999 7.43848 32.6055 7.93066 33.0977C8.42285 33.5723 8.88867 33.8096 9.32812 33.8096C9.41602 33.8096 9.54785 33.7832 9.72363 33.7305C9.91699 33.6777 10.1016 33.5635 10.2773 33.3877C10.4531 33.1943 10.6025 32.9131 10.7256 32.5439C10.8662 32.1572 10.9365 31.6299 10.9365 30.9619C10.9365 30.5049 10.8486 29.7402 10.6729 28.668C10.5146 27.5957 10.3037 26.374 10.04 25.0029C9.77637 23.6318 9.49512 22.1904 9.19629 20.6787C8.91504 19.167 8.64258 17.7432 8.37891 16.4072C8.11523 15.0713 7.89551 13.9023 7.71973 12.9004C7.56152 11.8809 7.48242 11.1865 7.48242 10.8174C7.48242 10.0439 7.64062 9.29687 7.95703 8.57617C8.29102 7.83789 8.67773 7.16113 9.11719 6.5459C9.57422 5.91309 10.04 5.35938 10.5146 4.88477C10.9893 4.41016 11.3672 4.04102 11.6484 3.77734C12.0703 3.42578 12.5361 3.04785 13.0459 2.64355C13.5732 2.23926 14.0918 1.86133 14.6016 1.50977C15.1289 1.1582 15.6211 0.868164 16.0781 0.639648C16.5352 0.393555 16.9131 0.270508 17.2119 0.270508C17.5107 0.270508 17.7832 0.34082 18.0293 0.481445C18.2754 0.604492 18.4863 0.833008 18.6621 1.16699C18.8555 1.4834 18.9961 1.93164 19.084 2.51172C19.1895 3.07422 19.2422 3.80371 19.2422 4.7002C19.2422 5.10449 19.1719 5.5 19.0312 5.88672C18.9082 6.25586 18.7412 6.625 18.5303 6.99414C18.3193 7.3457 18.082 7.68848 17.8184 8.02246C17.5547 8.33887 17.2822 8.6377 17.001 8.91895C16.333 9.58691 15.5859 10.2021 14.7598 10.7646L14.4961 10.3164ZM25.3594 4.33105C25.3594 3.94434 25.2539 3.68066 25.043 3.54004C24.8496 3.38184 24.6035 3.31152 24.3047 3.3291C24.0059 3.34668 23.6807 3.41699 23.3291 3.54004C22.9775 3.64551 22.6523 3.76855 22.3535 3.90918L22.0107 3.19727C23.8037 2.31836 25.2627 1.70312 26.3877 1.35156C27.5303 1 28.3213 0.824219 28.7607 0.824219C28.8838 0.824219 29.0244 0.876953 29.1826 0.982422C29.3584 1.07031 29.5166 1.20215 29.6572 1.37793C29.7979 1.55371 29.9209 1.75586 30.0264 1.98438C30.1318 2.19531 30.1846 2.41504 30.1846 2.64355C30.1846 2.78418 29.9824 3.37305 29.5781 4.41016C29.1738 5.42969 28.6904 6.77441 28.1279 8.44434C27.6709 9.86816 27.2314 11.2129 26.8096 12.4785C26.3877 13.7266 25.9834 14.9307 25.5967 16.0908C25.21 17.2334 24.832 18.3408 24.4629 19.4131C24.0938 20.4678 23.7246 21.5225 23.3555 22.5771C23.9004 21.874 24.4717 21.1621 25.0693 20.4414C25.667 19.7031 26.2383 19.0439 26.7832 18.4639C27.3281 17.8838 27.8291 17.4092 28.2861 17.04C28.7607 16.6709 29.1562 16.4863 29.4727 16.4863C29.5957 16.4863 29.8066 16.5479 30.1055 16.6709C30.4219 16.7764 30.7471 16.9521 31.0811 17.1982C31.415 17.4268 31.7051 17.7256 31.9512 18.0947C32.2148 18.4463 32.3555 18.877 32.373 19.3867C32.373 19.5625 32.25 19.9668 32.0039 20.5996C31.7578 21.2324 31.4502 21.9883 31.0811 22.8672C30.7295 23.7461 30.3428 24.7041 29.9209 25.7412C29.499 26.7783 29.1035 27.7979 28.7344 28.7998C28.3828 29.8018 28.084 30.7334 27.8379 31.5947C27.5918 32.4561 27.4688 33.1592 27.4688 33.7041C27.4688 33.915 27.4863 34.0732 27.5215 34.1787C27.5742 34.2666 27.6797 34.3105 27.8379 34.3105C28.0312 34.293 28.3213 34.1963 28.708 34.0205C29.0947 33.8271 29.543 33.5459 30.0527 33.1768C30.5625 32.8076 31.1074 32.3594 31.6875 31.832C32.2852 31.2871 32.874 30.6543 33.4541 29.9336L34.0605 30.4609C33.3223 31.3926 32.4873 32.2803 31.5557 33.124C30.6416 33.9502 29.7363 34.6797 28.8398 35.3125C27.9434 35.9453 27.0996 36.4463 26.3086 36.8154C25.5176 37.1846 24.876 37.3691 24.3838 37.3691C24.2959 37.3691 24.1816 37.334 24.041 37.2637C23.9004 37.1934 23.7598 37.0791 23.6191 36.9209C23.4785 36.7627 23.3555 36.543 23.25 36.2617C23.1445 35.9805 23.0918 35.6289 23.0918 35.207C23.0918 34.9961 23.1182 34.7324 23.1709 34.416C23.2236 34.082 23.2852 33.748 23.3555 33.4141C23.4258 33.0625 23.4961 32.7461 23.5664 32.4648C23.6543 32.166 23.7158 31.9463 23.751 31.8057C23.9092 31.1904 24.1289 30.5049 24.4102 29.749C24.709 28.9756 25.0254 28.1758 25.3594 27.3496C25.6934 26.5234 26.0361 25.7061 26.3877 24.8975C26.7393 24.0713 27.0557 23.3066 27.3369 22.6035C27.6182 21.8828 27.8467 21.2588 28.0225 20.7314C28.1982 20.1865 28.2861 19.7734 28.2861 19.4922C28.2861 19.2461 28.2158 19.123 28.0752 19.123C27.9521 19.123 27.7676 19.2285 27.5215 19.4395C27.2754 19.6328 26.9854 19.8965 26.6514 20.2305C26.335 20.5645 25.9922 20.9424 25.623 21.3643C25.2539 21.7686 24.8848 22.1904 24.5156 22.6299C24.1465 23.0518 23.7949 23.4648 23.4609 23.8691C23.1445 24.2559 22.8633 24.5986 22.6172 24.8975C22.002 26.708 21.3691 28.5889 20.7188 30.54C20.0859 32.4736 19.418 34.627 18.7148 37C18.5215 37.0352 18.3105 37.0615 18.082 37.0791C17.6777 37.1318 17.1504 37.1582 16.5 37.1582C16.2012 37.1582 15.8848 37.1406 15.5508 37.1055C15.2168 37.0879 14.8916 37.0527 14.5752 37L14.3906 36.7363C14.4785 36.5605 14.707 35.9893 15.0762 35.0225C15.4453 34.0381 15.9023 32.7988 16.4473 31.3047C16.9746 29.8105 17.5635 28.1318 18.2139 26.2686C18.8467 24.4053 19.4971 22.5068 20.165 20.5732C20.833 18.6396 21.4746 16.7412 22.0898 14.8779C22.7227 13.0146 23.2764 11.3359 23.751 9.8418C24.2432 8.33008 24.6299 7.08203 24.9111 6.09766C25.21 5.11328 25.3594 4.52441 25.3594 4.33105ZM34.7988 23.2891C35.2207 22.2695 35.7393 21.3555 36.3545 20.5469C36.9697 19.7207 37.6465 19.0264 38.3848 18.4639C39.123 17.8838 39.9053 17.4443 40.7314 17.1455C41.5576 16.8467 42.3926 16.6973 43.2363 16.6973C43.6055 16.6973 44.0098 16.8027 44.4492 17.0137C44.9062 17.207 45.3281 17.4795 45.7148 17.8311C46.1016 18.1826 46.418 18.6133 46.6641 19.123C46.9277 19.6152 47.0596 20.1602 47.0596 20.7578C47.0596 21.2676 46.998 21.8564 46.875 22.5244C46.752 23.1748 46.5938 23.8516 46.4004 24.5547C46.207 25.2402 45.9961 25.9258 45.7676 26.6113C45.5391 27.2969 45.3193 27.9297 45.1084 28.5098C44.8975 29.0723 44.7041 29.5557 44.5283 29.96C44.3701 30.3643 44.2559 30.6367 44.1855 30.7773C43.7637 31.8145 43.2451 32.7373 42.6299 33.5459C42.0146 34.3545 41.3379 35.0488 40.5996 35.6289C39.8613 36.1914 39.0791 36.6221 38.2529 36.9209C37.4443 37.2197 36.6182 37.3691 35.7744 37.3691C35.4053 37.3691 35.001 37.2725 34.5615 37.0791C34.1045 36.8857 33.6826 36.6133 33.2959 36.2617C32.9092 35.8926 32.5928 35.4619 32.3467 34.9697C32.083 34.4775 31.9512 33.9326 31.9512 33.335C31.9512 32.8076 32.0127 32.2188 32.1357 31.5684C32.2588 30.9004 32.417 30.2236 32.6104 29.5381C32.8037 28.835 33.0146 28.1406 33.2432 27.4551C33.4717 26.7695 33.6914 26.1455 33.9023 25.583C34.1133 25.0205 34.2979 24.5371 34.4561 24.1328C34.6143 23.7109 34.7285 23.4297 34.7988 23.2891ZM42.1025 18.1475C41.6982 18.1475 41.2588 18.5078 40.7842 19.2285C40.3271 19.9316 39.8613 20.8369 39.3867 21.9443C38.9297 23.0518 38.4814 24.2646 38.042 25.583C37.6201 26.8838 37.2422 28.1406 36.9082 29.3535C36.5918 30.5664 36.3281 31.6387 36.1172 32.5703C35.9238 33.4844 35.8271 34.0996 35.8271 34.416C35.8271 34.9258 35.9238 35.2949 36.1172 35.5234C36.3105 35.752 36.5742 35.8662 36.9082 35.8662C37.207 35.8662 37.5234 35.6641 37.8574 35.2598C38.1914 34.8379 38.5342 34.2842 38.8857 33.5986C39.2373 32.9131 39.5801 32.1221 39.9141 31.2256C40.2656 30.3291 40.5996 29.4062 40.916 28.457C41.2324 27.4902 41.5225 26.5322 41.7861 25.583C42.0674 24.6338 42.3047 23.7549 42.498 22.9463C42.709 22.1377 42.8672 21.4434 42.9727 20.8633C43.0957 20.2656 43.1572 19.8525 43.1572 19.624C43.1572 19.1143 43.0605 18.7451 42.8672 18.5166C42.6738 18.2705 42.4189 18.1475 42.1025 18.1475ZM45.7939 48.3906C45.4775 48.5312 45.126 48.6279 44.7393 48.6807C44.335 48.751 43.9307 48.7949 43.5264 48.8125C43.1221 48.8477 42.7441 48.8564 42.3926 48.8389C42.0234 48.8389 41.7158 48.8389 41.4697 48.8389L41.3115 48.5488C41.5928 47.9863 41.9707 47.0986 42.4453 45.8857C42.9023 44.6904 43.4297 43.2754 44.0273 41.6406C44.6074 40.0234 45.2314 38.2568 45.8994 36.3408C46.5498 34.4248 47.2178 32.4648 47.9033 30.4609C48.2373 29.4414 48.5889 28.3691 48.958 27.2441C49.3271 26.1191 49.6611 25.0557 49.96 24.0537C50.2588 23.0518 50.5049 22.1729 50.6982 21.417C50.9092 20.6436 51.0146 20.1162 51.0146 19.835C51.0146 19.6416 50.9883 19.4746 50.9355 19.334C50.9004 19.1758 50.8564 19.0439 50.8037 18.9385C50.7334 18.8154 50.6631 18.7012 50.5928 18.5957V18.2002C50.9795 17.9541 51.4453 17.7344 51.9902 17.541C52.5352 17.3477 53.0625 17.1895 53.5723 17.0664C54.1523 16.9258 54.7588 16.8027 55.3916 16.6973L55.4971 16.8555C55.4971 17.0312 55.4707 17.2861 55.418 17.6201C55.3652 17.9365 55.2949 18.2969 55.207 18.7012C55.1367 19.1055 55.0488 19.5273 54.9434 19.9668C54.8555 20.3887 54.7588 20.793 54.6533 21.1797C55.1631 20.4766 55.6465 19.8174 56.1035 19.2021C56.5605 18.5693 57 18.0244 57.4219 17.5674C57.8438 17.0928 58.2393 16.7236 58.6084 16.46C58.9951 16.1787 59.3643 16.0381 59.7158 16.0381C59.9443 16.0381 60.2168 16.1348 60.5332 16.3281C60.8496 16.5039 61.1484 16.7412 61.4297 17.04C61.7285 17.3213 61.9746 17.6465 62.168 18.0156C62.3789 18.3672 62.4844 18.7188 62.4844 19.0703C62.4844 19.6855 62.4141 20.3623 62.2734 21.1006C62.1504 21.8213 61.9834 22.5508 61.7725 23.2891C61.5615 24.0098 61.333 24.7217 61.0869 25.4248C60.8408 26.1279 60.6035 26.7695 60.375 27.3496C60.1465 27.9121 59.9355 28.3955 59.7422 28.7998C59.5664 29.2041 59.4521 29.4678 59.3994 29.5908C58.8896 30.751 58.2832 31.8057 57.5801 32.7549C56.8945 33.7041 56.1826 34.5215 55.4443 35.207C54.7061 35.8926 53.9766 36.4287 53.2559 36.8154C52.5527 37.1846 51.9375 37.3691 51.4102 37.3691C50.8652 37.3691 50.4609 37.3076 50.1973 37.1846C49.9336 37.0615 49.7051 36.9297 49.5117 36.7891C49.248 37.5801 48.9844 38.3799 48.7207 39.1885C48.4395 39.9971 48.1494 40.8496 47.8506 41.7461C47.5518 42.6602 47.2354 43.6533 46.9014 44.7256C46.5674 45.8154 46.1982 47.0371 45.7939 48.3906ZM58.0547 18.8066C57.8789 18.8066 57.6504 18.9561 57.3691 19.2549C57.1055 19.5361 56.7979 19.9141 56.4463 20.3887C56.0947 20.8457 55.708 21.3643 55.2861 21.9443C54.8818 22.5244 54.4512 23.0957 53.9941 23.6582C53.7656 24.3965 53.4756 25.293 53.124 26.3477C52.79 27.3848 52.4385 28.457 52.0693 29.5645C51.7178 30.6543 51.375 31.7178 51.041 32.7549C50.707 33.7744 50.4346 34.6357 50.2236 35.3389C50.3818 35.5322 50.584 35.6992 50.8301 35.8398C51.0762 35.9629 51.3398 36.0244 51.6211 36.0244C52.0605 36.0244 52.5264 35.6904 53.0186 35.0225C53.5283 34.3369 54.0293 33.4668 54.5215 32.4121C55.0312 31.3574 55.5146 30.1973 55.9717 28.9316C56.4463 27.6484 56.8594 26.4092 57.2109 25.2139C57.5625 24.0186 57.8438 22.9463 58.0547 21.9971C58.2656 21.0303 58.3711 20.3271 58.3711 19.8877C58.3711 19.8174 58.3623 19.7295 58.3447 19.624C58.3447 19.501 58.3271 19.3779 58.292 19.2549C58.2744 19.1318 58.248 19.0264 58.2129 18.9385C58.1777 18.8506 58.125 18.8066 58.0547 18.8066Z" fill="#333333"/>
</svg>
